<svg t="1667464426408" class="icon" viewBox="0 0 1024 1024" version="1.1" xmlns="http://www.w3.org/2000/svg" p-id="18488" width="200" height="200"><path d="M864 896H160c-52.8 0-96-43.2-96-96V352c0-52.8 43.2-96 96-96h124.8l36.8-75.2c16-32 49.6-52.8 86.4-52.8h209.6c36.8 0 68.8 20.8 86.4 52.8l36.8 75.2H864c52.8 0 96 43.2 96 96v448c0 52.8-43.2 96-96 96zM160 320c-17.6 0-32 14.4-32 32v448c0 17.6 14.4 32 32 32h704c17.6 0 32-14.4 32-32V352c0-17.6-14.4-32-32-32h-144c-12.8 0-24-6.4-28.8-17.6l-46.4-92.8c-4.8-11.2-16-17.6-28.8-17.6h-208c-12.8 0-22.4 6.4-28.8 17.6l-46.4 92.8c-4.8 11.2-16 17.6-28.8 17.6h-144z" p-id="18489" fill="#000000"></path><path d="M512 736c-97.6 0-176-78.4-176-176s78.4-176 176-176 176 78.4 176 176-78.4 176-176 176z m0-288c-62.4 0-112 49.6-112 112s49.6 112 112 112 112-49.6 112-112-49.6-112-112-112z" p-id="18490" fill="#000000"></path></svg>