<?xml version="1.0" standalone="no"?><!DOCTYPE svg PUBLIC "-//W3C//DTD SVG 1.1//EN" "http://www.w3.org/Graphics/SVG/1.1/DTD/svg11.dtd"><svg t="1667460658463" class="icon" viewBox="0 0 1024 1024" version="1.1" xmlns="http://www.w3.org/2000/svg" p-id="7320" xmlns:xlink="http://www.w3.org/1999/xlink" width="200" height="200"><path d="M512 51.2a153.6 153.6 0 0 0-153.6 153.6v307.2a153.6 153.6 0 1 0 307.2 0V204.8a153.6 153.6 0 0 0-153.6-153.6z m25.6 818.944V998.4a25.6 25.6 0 0 1-51.2 0v-128.256c-184.9344-6.7072-332.8-158.7712-332.8-345.344V512a25.6 25.6 0 0 1 51.2 0v12.8C204.8 687.3856 336.6144 819.2 499.2 819.2h25.6C687.3856 819.2 819.2 687.3856 819.2 524.8V512a25.6 25.6 0 0 1 51.2 0v12.8c0 186.5728-147.8656 338.6368-332.8 345.344zM512 0a204.8 204.8 0 0 1 204.8 204.8v307.2a204.8 204.8 0 1 1-409.6 0V204.8a204.8 204.8 0 0 1 204.8-204.8z" p-id="7321" fill="#000000"></path></svg>