<svg t="1667973804305" class="icon" viewBox="0 0 1024 1024" version="1.1" xmlns="http://www.w3.org/2000/svg" p-id="92423" width="200" height="200"><path d="M570.6 844.3L512 883.9l-58.6-39.6C288.1 732.4 190 551.8 190 359.3V247.7l322-123.2 322 123.2v111.5c0 192.6-98.2 373.2-263.4 485.1z" fill="#31BC69" p-id="92424"></path><path d="M476.2 586.4c-8 0-15.6-3.2-21.2-8.8l-110-110c-11.7-11.7-11.7-30.7 0-42.4s30.7-11.7 42.4 0l88.8 88.8 183.7-183.7c11.7-11.7 30.7-11.7 42.4 0s11.7 30.7 0 42.4L497.4 577.6c-5.6 5.7-13.2 8.8-21.2 8.8z" fill="#FFFFFF" p-id="92425"></path></svg>