<svg t="1667464949469" class="icon" viewBox="0 0 1024 1024" version="1.1" xmlns="http://www.w3.org/2000/svg" p-id="31440" width="200" height="200"><path d="M757.333333 128A138.666667 138.666667 0 0 1 896 266.666667v490.666666A138.666667 138.666667 0 0 1 757.333333 896H266.666667A138.666667 138.666667 0 0 1 128 757.333333V266.666667A138.666667 138.666667 0 0 1 266.666667 128h490.666666z m24.746667 699.776l-247.68-242.602667a32 32 0 0 0-41.216-3.029333l-3.584 2.986667-247.765333 242.645333c7.765333 2.730667 16.128 4.224 24.832 4.224h490.666666c8.661333 0 17.024-1.493333 24.746667-4.224l-247.68-242.602667L782.08 827.733333zM757.333333 192H266.666667A74.666667 74.666667 0 0 0 192 266.666667v490.666666c0 8.874667 1.536 17.408 4.394667 25.344l248.448-243.242666a96 96 0 0 1 128.853333-4.949334l5.461333 4.949334 248.405334 243.285333c2.858667-7.936 4.437333-16.469333 4.437333-25.386667V266.666667a74.666667 74.666667 0 0 0-74.666667-74.666667z m-106.581333 85.333333a96.085333 96.085333 0 1 1 0 192.170667 96.085333 96.085333 0 0 1 0-192.170667z m0 64a32.085333 32.085333 0 1 0 0 64.170667 32.085333 32.085333 0 0 0 0-64.170667z" p-id="31441" fill="#000000"></path></svg>